/* XPM */
static char * autodel_btn_xpm[] = {
"16 16 5 1",
" 	c None",
".	c #000000",
"+	c #040000",
"@	c #070000",
"#	c #840000",
"                ",
" ...     .      ",
" . . . . .. ... ",
" ... . . .  . . ",
" . . +@. .. .+. ",
"     ##      #  ",
"     ###   ##   ",
"       ## ##    ",
"        ###     ",
"        ###     ",
"       ##  #    ",
"      ##    #   ",
"     ###        ",
"     ##         ",
"                ",
"                "};
