/* XPM */
static char * quit_btn_xpm[] = {
"16 16 16 1",
" 	c None",
".	c #040204",
"+	c #2C2E2C",
"@	c #747274",
"#	c #747674",
"$	c #000000",
"%	c #000000",
"&	c #000000",
"*	c #000000",
"=	c #000000",
"-	c #000000",
";	c #000000",
">	c #000000",
",	c #000000",
"'	c #000000",
")	c #000000",
"                ",
"       ..       ",
"       ..       ",
"    .  ..  .    ",
"   +.. .. ..+   ",
"  @..  ..  ..@  ",
"  +.@  ..  @.+  ",
"  ..   ..   ..  ",
"  ..   ..   ..  ",
"  +.@  ..  @.+  ",
"  #..      ..#  ",
"   +..@  @..+   ",
"    +......+    ",
"     #+..+@     ",
"                ",
"                "};
